<?xml version="1.0" encoding="UTF-8"?>
<svg width="128" height="128" version="1.1" viewBox="0 0 128 128" xmlns="http://www.w3.org/2000/svg">
 <circle cx="64" cy="64" r="60" fill="#4caf50" stroke="#388e3c" stroke-width="4"/>
 <path d="m64 32c-17.673 0-32 14.327-32 32 0 7.0693 2.2892 13.602 6.1719 18.875l-4.1719 15.125 15.125-4.1719c5.2728 3.8827 11.806 6.1719 18.875 6.1719 17.673 0 32-14.327 32-32s-14.327-32-32-32zm0 6c14.359 0 26 11.641 26 26s-11.641 26-26 26c-6.0708 0-11.652-2.0884-16.062-5.5938l-1.9375-1.5312-2.0938 0.5625-7.875 2.1875 2.1875-7.875 0.5625-2.0938-1.5312-1.9375c-3.5054-4.4097-5.5938-10.022-5.5938-16.094 0-14.359 11.641-26 26-26z" fill="#fff"/>
</svg> 